<svg xmlns="http://www.w3.org/2000/svg" width="24" height="24" viewBox="0 0 24 24">
  <title>key-1</title>
  <g id="Duotone">
    <polygon points="13.304 13.386 18.996 7.694 21.094 9.791 22.815 9.447 23.159 7.726 21.062 5.628 23.504 3.25 20.75 0.496 10.55 10.631 5.664 9.321 0.5 14.485 2.394 21.541 9.451 23.5 14.615 18.272 13.304 13.386" fill="#fff"/>
    <polygon points="22.118 1.865 10.093 13.89 10.106 13.893 11.14 17.68 8.385 20.434 4.599 19.401 4.595 19.388 2.431 21.552 9.451 23.5 14.615 18.272 13.304 13.386 18.996 7.694 21.094 9.791 22.815 9.447 23.159 7.726 21.062 5.628 23.504 3.25 22.118 1.865" fill="#cce7ff"/>
    <polygon points="13.304 13.386 18.996 7.694 21.094 9.791 22.815 9.447 23.159 7.726 21.062 5.628 23.504 3.25 20.75 0.496 10.55 10.631 5.664 9.321 0.5 14.485 2.394 21.541 9.451 23.5 14.615 18.272 13.304 13.386" fill="none" stroke="#1078ff" stroke-linecap="round" stroke-linejoin="round"/>
    <polygon points="8.385 20.434 4.599 19.401 3.566 15.615 6.32 12.861 10.107 13.893 11.139 17.68 8.385 20.434" fill="none" stroke="#1078ff" stroke-linecap="round" stroke-linejoin="round"/>
  </g>
  <g id="Frames-24px">
    <rect width="24" height="24" fill="none"/>
  </g>
</svg>
