<svg xmlns="http://www.w3.org/2000/svg" width="24" height="24" viewBox="0 0 24 24">
  <title>wallet-1</title>
  <g id="Duotone">
    <polygon points="23.5 9.5 19.5 9.5 19.5 4.5 0.5 4.5 0.5 21.5 19.5 21.5 19.5 15.5 23.5 15.5 23.5 9.5" fill="#fff"/>
    <rect x="0.5" y="19.5" width="19" height="2" fill="#cce7ff"/>
    <g>
      <polygon points="19.5 9.5 21.5 9.5 21.5 2.5 3 2.5 0.5 4.5 19.5 4.5 19.5 9.5" fill="#cce7ff"/>
      <rect x="19.5" y="15.5" width="2" height="4" fill="#cce7ff"/>
    </g>
    <g>
      <polyline points="19.5 15.5 19.5 21.5 0.5 21.5 0.5 4.5 19.5 4.5 19.5 9.5" fill="none" stroke="#1078ff" stroke-linecap="round" stroke-linejoin="round"/>
      <polyline points="21.5 15.5 21.5 19.5 19.5 19.5" fill="none" stroke="#1078ff" stroke-linecap="round" stroke-linejoin="round"/>
      <polyline points="0.5 4.5 3 2.5 21.5 2.5 21.5 9.5" fill="none" stroke="#1078ff" stroke-linecap="round" stroke-linejoin="round"/>
      <line x1="17.5" y1="12.5" x2="18.5" y2="12.5" fill="none" stroke="#1078ff" stroke-linecap="round" stroke-linejoin="round"/>
      <polygon points="16.5 15.5 23.5 15.5 23.5 9.5 16.5 9.5 14 12.5 16.5 15.5" fill="none" stroke="#1078ff" stroke-linejoin="round"/>
    </g>
  </g>
  <g id="Frames-24px">
    <rect width="24" height="24" fill="none"/>
  </g>
</svg>
