<svg xmlns="http://www.w3.org/2000/svg" width="24" height="24" viewBox="0 0 24 24">
  <title>cloud-transfer-half</title>
  <g id="Duotone">
    <polygon points="21 6.5 18 6.5 15.5 0.5 10.5 0.5 8 4.5 4 4.5 0.5 10 4 14.5 20 14.5 22.5 11 21 6.5" fill="#fff"/>
    <polygon points="19 23.5 22.5 18.5 4 18.5 0.5 23.5 19 23.5" fill="#fff"/>
    <polygon points="11 18.5 4 18.5 0.5 23.5 7.5 23.5 11 18.5" fill="#cce7ff"/>
    <polygon points="22.5 11 19.5 11 18 12 6 12 4 10 0.5 10 4 14.5 20 14.5 22.5 11" fill="#cce7ff"/>
    <g>
      <polygon points="21 6.5 18 6.5 15.5 0.5 10.5 0.5 8 4.5 4 4.5 0.5 10 4 14.5 20 14.5 22.5 11 21 6.5" fill="none" stroke="#1078ff" stroke-linecap="round" stroke-linejoin="round"/>
      <line x1="14.5" y1="6.5" x2="18" y2="6.5" fill="none" stroke="#1078ff" stroke-linecap="round" stroke-linejoin="round"/>
    </g>
    <line x1="7.5" y1="18.5" x2="4" y2="23.5" fill="none" stroke="#1078ff" stroke-linecap="round" stroke-linejoin="round"/>
    <line x1="11" y1="18.5" x2="7.5" y2="23.5" fill="none" stroke="#1078ff" stroke-linecap="round" stroke-linejoin="round"/>
    <polygon points="19 23.5 22.5 18.5 4 18.5 0.5 23.5 19 23.5" fill="none" stroke="#1078ff" stroke-linecap="round" stroke-linejoin="round"/>
  </g>
  <g id="Frames-24px">
    <rect width="24" height="24" fill="none"/>
  </g>
</svg>
