<svg xmlns="http://www.w3.org/2000/svg" width="24" height="24" viewBox="0 0 24 24">
  <title>present-hand</title>
  <g id="Duotone">
    <polygon points="8.5 18.5 8.5 14.5 7.5 14.5 5 18.5 3.5 18.5 3.5 17.5 0.5 17.5 0.5 23.5 3.5 23.5 3.5 22.5 9 22.5 17 20.5 18.5 18.5 8.5 18.5" fill="#fff"/>
    <polygon points="9.5 5.5 9.5 8.5 10.5 8.5 10.5 16.5 22.5 16.5 22.5 8.5 23.5 8.5 23.5 5.5 9.5 5.5" fill="#fff"/>
    <rect x="0.5" y="19.5" width="3" height="4" fill="#cce7ff"/>
    <rect x="10.5" y="8.5" width="12" height="2" fill="#cce7ff"/>
    <polygon points="11 2.5 16 5.485 14.5 1.5 11 0.5 11 2.5" fill="none" stroke="#1078ff" stroke-linecap="round" stroke-linejoin="round"/>
    <polygon points="22 2.5 17 5.485 18.5 1.5 22 0.5 22 2.5" fill="none" stroke="#1078ff" stroke-linecap="round" stroke-linejoin="round"/>
    <polyline points="3.5 22.5 9 22.5 17 20.5 18.5 18.5 8.5 18.5 8.5 14.5 7.5 14.5 5 18.5 3.5 18.5" fill="none" stroke="#1078ff" stroke-linecap="round" stroke-linejoin="round"/>
    <rect x="0.5" y="17.5" width="3" height="6" fill="none" stroke="#1078ff" stroke-linecap="round" stroke-linejoin="round"/>
    <rect x="9.5" y="5.5" width="14" height="3" fill="none" stroke="#1078ff" stroke-linecap="round" stroke-linejoin="round"/>
    <rect x="10.5" y="8.5" width="12" height="8" fill="none" stroke="#1078ff" stroke-linecap="round" stroke-linejoin="round"/>
    <line x1="16.5" y1="16.5" x2="16.5" y2="5.5" fill="none" stroke="#1078ff" stroke-linecap="round" stroke-linejoin="round"/>
  </g>
  <g id="Frames-24px">
    <rect width="24" height="24" fill="none"/>
  </g>
</svg>
