<svg xmlns="http://www.w3.org/2000/svg" width="24" height="24" viewBox="0 0 24 24">
  <title>usb-flash-drive-lock</title>
  <g id="Duotone">
    <polygon points="15.5 6.5 15.5 0.5 7.5 0.5 7.5 6.5 5.5 6.5 5.5 20.5 11.5 23.5 17.5 20.5 17.5 6.5 15.5 6.5" fill="#fff"/>
    <polygon points="5.5 18.5 5.5 20.5 11.5 23.5 17.5 20.5 17.5 18.5 11.5 21.5 5.5 18.5" fill="#cce7ff"/>
    <polygon points="15.5 0.5 15.5 6.5 7.5 6.5 15.5 0.5" fill="#cce7ff"/>
    <rect x="11.5" y="12.5" width="4" height="6" fill="#cce7ff"/>
    <rect x="7.5" y="0.5" width="8" height="6" fill="none" stroke="#1078ff" stroke-linecap="round" stroke-linejoin="round"/>
    <polygon points="17.5 20.5 11.5 23.5 5.5 20.5 5.5 6.5 17.5 6.5 17.5 20.5" fill="none" stroke="#1078ff" stroke-linecap="round" stroke-linejoin="round"/>
    <line x1="10.5" y1="2.5" x2="10.5" y2="4.5" fill="none" stroke="#1078ff" stroke-linecap="round" stroke-linejoin="round"/>
    <line x1="12.5" y1="2.5" x2="12.5" y2="4.5" fill="none" stroke="#1078ff" stroke-linecap="round" stroke-linejoin="round"/>
    <polyline points="8.5 12.5 8.5 11 11.5 9.5 14.5 11 14.5 12.5" fill="none" stroke="#1078ff" stroke-linecap="round" stroke-linejoin="round"/>
    <line x1="11.5" y1="16.5" x2="11.5" y2="14.5" fill="none" stroke="#1078ff" stroke-linecap="round" stroke-linejoin="round"/>
    <rect x="7.5" y="12.5" width="8" height="6" fill="none" stroke="#1078ff" stroke-linecap="round" stroke-linejoin="round"/>
  </g>
  <g id="Frames-24px">
    <rect width="24" height="24" fill="none"/>
  </g>
</svg>
