<?xml version="1.0" encoding="utf-8"?>
<!-- Generator: Adobe Illustrator 21.0.2, SVG Export Plug-In . SVG Version: 6.00 Build 0)  -->
<svg version="1.1" xmlns="http://www.w3.org/2000/svg" xmlns:xlink="http://www.w3.org/1999/xlink" x="0px" y="0px"
	 viewBox="0 0 24 24" style="enable-background:new 0 0 24 24;" xml:space="preserve">
<style type="text/css">
	.st0{fill:#FFFFFF;}
	.st1{fill:#CCE7FF;}
	.st2{fill:none;stroke:#1078FF;stroke-linecap:round;stroke-linejoin:round;stroke-miterlimit:10;}
	.st3{fill:none;}
</style>
<g id="Duotone">
	<rect x="2.5" y="9.5" class="st0" width="18" height="14"/>
	<polygon class="st1" points="11.5,9.5 11.5,12.5 14.5,14 14.5,16.5 12.5,18 14,21.5 11.5,21.5 11.5,23.5 20.5,23.5 20.5,9.5 	"/>
	<rect x="2.5" y="9.5" class="st2" width="18" height="14"/>
	<polygon class="st2" points="14.5,14 11.5,12.5 8.5,14 8.5,16.5 10.5,18 9,21.5 14,21.5 12.5,18 14.5,16.5 	"/>
	<polyline class="st2" points="6.5,9.5 6.5,2.5 11.5,0.5 16.5,2.5 16.5,9.5 	"/>
</g>
<g id="Frames-24px">
	<rect class="st3" width="24" height="24"/>
</g>
</svg>
