<?xml version="1.0" encoding="utf-8"?>
<!-- Generator: Adobe Illustrator 21.0.2, SVG Export Plug-In . SVG Version: 6.00 Build 0)  -->
<svg version="1.1" xmlns="http://www.w3.org/2000/svg" xmlns:xlink="http://www.w3.org/1999/xlink" x="0px" y="0px"
	 viewBox="0 0 24 24" style="enable-background:new 0 0 24 24;" xml:space="preserve">
<style type="text/css">
	.st0{fill:#FFFFFF;}
	.st1{fill:#CCE7FF;}
	.st2{fill:none;stroke:#1078FF;stroke-linecap:round;stroke-linejoin:round;stroke-miterlimit:10;}
	.st3{fill:#1078FF;}
	.st4{fill:none;}
</style>
<g id="Duotone">
	<polygon class="st0" points="20.5,20.5 20.5,8.5 2.5,8.5 2.5,20.5 0.5,20.5 3.5,23.5 20,23.5 22.5,20.5 	"/>
	<polygon class="st1" points="20.5,20.5 13.5,20.5 11.5,21.5 9.5,20.5 2.5,20.5 20.5,8.5 	"/>
	<g>
		<polyline class="st2" points="9.5,8.5 2.5,8.5 2.5,20.5 		"/>
		<polyline class="st2" points="20.5,20.5 20.5,8.5 13.5,8.5 		"/>
		<polygon class="st2" points="0.5,20.5 9.5,20.5 11.5,21.5 13.6,20.5 22.5,20.5 20,23.5 3.5,23.5 		"/>
	</g>
	<g>
		<polyline class="st2" points="8,5 11.5,1.5 15,5 		"/>
		<line class="st2" x1="11.5" y1="1.5" x2="11.5" y2="12.5"/>
	</g>
</g>
<g id="Frames-24px">
	<rect class="st4" width="24" height="24"/>
</g>
</svg>
