<svg xmlns="http://www.w3.org/2000/svg" width="24" height="24" viewBox="0 0 24 24">
  <title>money-bag-2</title>
  <g id="Duotone">
    <polygon points="11.5 0.5 13.5 2 17 1 14.5 4.5 14.5 6.5 19 10 21 23.5 16.5 22 11.5 23.5 6.5 22 2 23.5 4 10 8.5 6.5 8.5 4.5 6 1 9.5 2 11.5 0.5" fill="#fff"/>
    <polygon points="6.5 22 11.5 23.5 16.5 22 21 23.5 19.335 12.26 14.5 8.499 8.5 8.499 3.665 12.26 2 23.5 6.5 22" fill="#cce7ff"/>
    <polygon points="14.5 4.5 15.654 2.885 13.5 3.5 11.5 2 9.5 3.5 7.346 2.885 8.5 4.5 14.5 4.5" fill="#cce7ff"/>
    <g>
      <g>
        <line x1="8.5" y1="4.5" x2="14.5" y2="4.5" fill="none" stroke="#1078ff" stroke-linecap="round" stroke-linejoin="round"/>
        <line x1="14.5" y1="6.5" x2="8.5" y2="6.5" fill="none" stroke="#1078ff" stroke-linecap="round" stroke-linejoin="round"/>
        <polyline points="18 4 14.5 6.5 18.5 6.5" fill="none" stroke="#1078ff" stroke-linecap="round" stroke-linejoin="round"/>
        <line x1="9.5" y1="2" x2="9.5" y2="3" fill="none" stroke="#1078ff" stroke-linecap="round" stroke-linejoin="round"/>
        <line x1="13.5" y1="2" x2="13.5" y2="3" fill="none" stroke="#1078ff" stroke-linecap="round" stroke-linejoin="round"/>
        <polygon points="11.5 0.5 13.5 2 17 1 14.5 4.5 14.5 6.5 19 10 21 23.5 16.5 22 11.5 23.5 6.5 22 2 23.5 4 10 8.5 6.5 8.5 4.5 6 1 9.5 2 11.5 0.5" fill="none" stroke="#1078ff" stroke-linecap="round" stroke-linejoin="round"/>
      </g>
      <g>
        <polyline points="13.5 12.5 10 12.5 9 14 10 15.5 13 15.5 14 17 13 18.5 9.5 18.5" fill="none" stroke="#1078ff" stroke-linecap="round" stroke-linejoin="round"/>
        <line x1="11.5" y1="12.5" x2="11.5" y2="11.5" fill="none" stroke="#1078ff" stroke-linecap="round" stroke-linejoin="round"/>
        <line x1="11.5" y1="19.5" x2="11.5" y2="18.5" fill="none" stroke="#1078ff" stroke-linecap="round" stroke-linejoin="round"/>
      </g>
    </g>
  </g>
  <g id="Frames-24px">
    <rect width="24" height="24" fill="none"/>
  </g>
</svg>
