<svg xmlns="http://www.w3.org/2000/svg" width="24" height="24" viewBox="0 0 24 24">
  <title>business-chat-4</title>
  <g id="Duotone">
    <polygon points="8.5 18.5 5.5 20 2.5 18.5 2.5 14.5 5.5 13 8.5 14.5 8.5 18.5" fill="#fff"/>
    <polygon points="10.5 23.5 10.5 22 5.5 21 0.5 22 0.5 23.5 10.5 23.5" fill="#fff"/>
    <polygon points="21.5 6.5 18.5 8 15.5 6.5 15.5 2.5 18.5 1 21.5 2.5 21.5 6.5" fill="#fff"/>
    <polygon points="23.5 11.5 23.5 10 18.5 9 13.5 10 13.5 11.5 23.5 11.5" fill="#fff"/>
    <polygon points="11.5 7.5 9.5 7.5 9.5 9.5 7 7.5 2.5 7.5 2.5 1.5 11.5 1.5 11.5 7.5" fill="#fff"/>
    <polygon points="12.5 20.5 14.5 20.5 14.5 22.5 17 20.5 21.5 20.5 21.5 14.5 12.5 14.5 12.5 20.5" fill="#fff"/>
    <polygon points="5.5 13 3.226 14.137 3.2 14.13 3.216 14.142 5 15.5 8.5 15.5 8.5 14.5 5.5 13" fill="#cce7ff"/>
    <polygon points="18.5 1 16.226 2.137 16.2 2.13 16.216 2.142 18 3.5 21.5 3.5 21.5 2.5 18.5 1" fill="#cce7ff"/>
    <polygon points="12.5 20.5 14.5 20.5 14.5 22.5 17 20.5 21.5 20.5 21.5 18.5 12.5 18.5 12.5 20.5" fill="#cce7ff"/>
    <polygon points="11.5 7.5 9.5 7.5 9.5 9.5 7 7.5 2.5 7.5 2.5 5.5 11.5 5.5 11.5 7.5" fill="#cce7ff"/>
    <g>
      <polygon points="8.5 18.5 5.5 20 2.5 18.5 2.5 14.5 5.5 13 8.5 14.5 8.5 18.5" fill="none" stroke="#1078ff" stroke-linejoin="round"/>
      <polyline points="3.2 14.13 5 15.5 8.5 15.5" fill="none" stroke="#1078ff" stroke-miterlimit="10"/>
      <polyline points="10.5 23.5 10.5 22 5.5 21 0.5 22 0.5 23.5" fill="none" stroke="#1078ff" stroke-linecap="round" stroke-linejoin="round"/>
      <line x1="14.5" y1="16.5" x2="18.5" y2="16.5" fill="none" stroke="#1078ff" stroke-linecap="round" stroke-linejoin="round"/>
      <line x1="14.5" y1="18.5" x2="17.5" y2="18.5" fill="none" stroke="#1078ff" stroke-linecap="round" stroke-linejoin="round"/>
      <line x1="4.5" y1="3.5" x2="8.5" y2="3.5" fill="none" stroke="#1078ff" stroke-linecap="round" stroke-linejoin="round"/>
      <line x1="4.5" y1="5.5" x2="7.5" y2="5.5" fill="none" stroke="#1078ff" stroke-linecap="round" stroke-linejoin="round"/>
      <polygon points="21.5 6.5 18.5 8 15.5 6.5 15.5 2.5 18.5 1 21.5 2.5 21.5 6.5" fill="none" stroke="#1078ff" stroke-linejoin="round"/>
      <polyline points="16.2 2.13 18 3.5 21.5 3.5" fill="none" stroke="#1078ff" stroke-miterlimit="10"/>
      <polyline points="23.5 11.5 23.5 10 18.5 9 13.5 10 13.5 11.5" fill="none" stroke="#1078ff" stroke-linecap="round" stroke-linejoin="round"/>
      <polygon points="11.5 7.5 9.5 7.5 9.5 9.5 7 7.5 2.5 7.5 2.5 1.5 11.5 1.5 11.5 7.5" fill="none" stroke="#1078ff" stroke-linecap="round" stroke-linejoin="round"/>
      <polygon points="12.5 20.5 14.5 20.5 14.5 22.5 17 20.5 21.5 20.5 21.5 14.5 12.5 14.5 12.5 20.5" fill="none" stroke="#1078ff" stroke-linecap="round" stroke-linejoin="round"/>
    </g>
  </g>
  <g id="Frames-24px">
    <rect width="24" height="24" fill="none"/>
  </g>
</svg>
