<?xml version="1.0" encoding="utf-8"?>
<!-- Generator: Adobe Illustrator 21.0.2, SVG Export Plug-In . SVG Version: 6.00 Build 0)  -->
<svg version="1.1" xmlns="http://www.w3.org/2000/svg" xmlns:xlink="http://www.w3.org/1999/xlink" x="0px" y="0px"
	 viewBox="0 0 24 24" style="enable-background:new 0 0 24 24;" xml:space="preserve">
<style type="text/css">
	.st0{fill:#FFFFFF;}
	.st1{fill:#CCE7FF;}
	.st2{fill:none;stroke:#1078FF;stroke-linecap:round;stroke-linejoin:round;stroke-miterlimit:10;}
	.st3{fill:none;stroke:#1078FF;stroke-linejoin:round;stroke-miterlimit:10;}
	.st4{fill:none;}
</style>
<g id="Duotone">
	<g>
		<polygon class="st0" points="10.5,17.5 20.5,8 23.5,0.5 16,3.5 6.5,13.5 7,15.5 5,15.5 2.5,13 4,17.9 4,17.9 1,21.5 2.5,23 
			6.1,20 11,21.5 8.5,19 8.5,17 		"/>
	</g>
	<rect x="0.5" y="21.5" transform="matrix(-1.836970e-16 1 -1 -1.836970e-16 24 21)" class="st1" width="2" height="2"/>
	<polygon class="st1" points="4.5,19.5 11,21.5 2.5,13 	"/>
	<g>
		<polygon class="st1" points="6.8,17.3 8.5,19 8.5,17 10.5,17.5 20.5,8 23.5,0.5 		"/>
	</g>
	<g>
		<rect x="0.5" y="21.5" transform="matrix(-1.836970e-16 1 -1 -1.836970e-16 24 21)" class="st2" width="2" height="2"/>
		<polygon class="st2" points="4.5,19.5 11,21.5 2.5,13 		"/>
		<line class="st2" x1="1" y1="21.5" x2="4" y2="17.9"/>
		<line class="st2" x1="2.5" y1="23" x2="6.1" y2="20"/>
		<polyline class="st2" points="8.5,19 8.5,17 10.5,17.5 20.5,8 23.5,0.5 16,3.5 6.5,13.5 7,15.5 5,15.5 		"/>
		<line class="st2" x1="9" y1="15" x2="19" y2="5"/>
	</g>
</g>
<g id="Frames-24px">
	<rect class="st4" width="24" height="24"/>
</g>
</svg>
