<svg xmlns="http://www.w3.org/2000/svg" width="24" height="24" viewBox="0 0 24 24">
  <title>user-chat-idea</title>
  <g id="Duotone">
    <polygon points="6.5 1.5 6.5 9 4.5 8 2.5 9 2.5 11.5 4.5 12.5 6.5 11.5 6.5 13.5 2 13.5 0.5 18.5 2.5 18.5 3 23.5 6 23.5 6.5 18.5 8.5 18.5 7.9 16.5 12.5 16.5 12.5 20.5 16.5 16.5 22.5 16.5 22.5 1.5 6.5 1.5" fill="#fff"/>
    <rect x="14.5" y="10.5" width="2" height="4" fill="#cce7ff"/>
    <polygon points="14.5 10.5 16.5 10.5 18.5 9 18.5 5.5 14.5 3.5 14.5 10.5" fill="#cce7ff"/>
    <polygon points="15.5 15 12.5 18 12.5 20.5 16.5 16.5 22.5 16.5 22.5 15 15.5 15" fill="#cce7ff"/>
    <polygon points="4.5 8 6.5 9 6.5 11.5 4.5 12.5 4.5 8" fill="#cce7ff"/>
    <polygon points="7 13.5 4.5 13.5 4.5 23.5 6 23.5 6.5 18.5 8.5 18.5 7 13.5" fill="#cce7ff"/>
    <polyline points="6.5 6.5 6.5 1.5 22.5 1.5 22.5 16.5 16.5 16.5 12.5 20.5 12.5 16.5 10.5 16.5" fill="none" stroke="#1078ff" stroke-linecap="round" stroke-linejoin="round"/>
    <polygon points="6.5 11.5 4.5 12.5 2.5 11.5 2.5 9 4.5 8 6.5 9 6.5 11.5" fill="none" stroke="#1078ff" stroke-linecap="round" stroke-linejoin="round"/>
    <polygon points="8.5 18.5 7 13.5 2 13.5 0.5 18.5 2.5 18.5 3 23.5 6 23.5 6.5 18.5 8.5 18.5" fill="none" stroke="#1078ff" stroke-linecap="round" stroke-linejoin="round"/>
    <line x1="4.5" y1="13.5" x2="4.5" y2="16.5" fill="none" stroke="#1078ff" stroke-linecap="round" stroke-linejoin="round"/>
    <polyline points="12.5 10.5 12.5 14.5 16.5 14.5 16.5 10.5" fill="none" stroke="#1078ff" stroke-linecap="round" stroke-linejoin="round"/>
    <polygon points="14.5 3.5 10.5 5.5 10.5 9 12.5 10.5 16.5 10.5 18.5 9 18.5 5.5 14.5 3.5" fill="none" stroke="#1078ff" stroke-linecap="round" stroke-linejoin="round"/>
    <polyline points="14.5 10.5 14.5 9 16 7.5" fill="none" stroke="#1078ff" stroke-linecap="round" stroke-linejoin="round"/>
    <line x1="14.5" y1="9" x2="13" y2="7.5" fill="none" stroke="#1078ff" stroke-linecap="round" stroke-linejoin="round"/>
    <line x1="14.5" y1="14.5" x2="14.5" y2="15.5" fill="none" stroke="#1078ff" stroke-linecap="round" stroke-linejoin="round"/>
    <line x1="12.5" y1="12.5" x2="16.5" y2="12.5" fill="none" stroke="#1078ff" stroke-linecap="round" stroke-linejoin="round"/>
  </g>
  <g id="Frames-24px">
    <rect width="24" height="24" fill="none"/>
  </g>
</svg>
